<?xml version="1.0" standalone="no"?>
<!DOCTYPE svg PUBLIC "-//W3C//DTD SVG 20010904//EN"
 "http://www.w3.org/TR/2001/REC-SVG-20010904/DTD/svg10.dtd">
<svg version="1.0" xmlns="http://www.w3.org/2000/svg"
 width="1000.000000pt" height="1000.000000pt" viewBox="0 0 1000.000000 1000.000000"
 preserveAspectRatio="xMidYMid meet">
<metadata>
Created by potrace 1.16, written by Peter Selinger 2001-2019
</metadata>
<g transform="translate(0.000000,1000.000000) scale(0.100000,-0.100000)"
fill="#000000" stroke="none">
<path d="M4155 9709 c5 -8 48 -66 97 -129 48 -64 88 -118 88 -121 0 -4 -60 -9
-132 -12 -153 -6 -239 -26 -529 -116 -104 -33 -225 -68 -269 -78 -44 -10 -80
-20 -80 -23 0 -3 59 -29 130 -59 72 -29 129 -56 127 -58 -3 -2 -86 -10 -186
-18 -446 -37 -861 -113 -1076 -198 -50 -19 -114 -40 -143 -46 -148 -31 -234
-133 -302 -358 -24 -78 -26 -82 -62 -92 -67 -21 -138 -130 -174 -270 -18 -74
-14 -149 10 -166 14 -10 11 -23 -20 -111 -68 -190 -93 -348 -64 -405 7 -13 26
-38 42 -56 17 -17 27 -36 24 -41 -13 -21 297 -236 524 -364 122 -70 334 -178
348 -178 4 0 16 16 27 36 35 65 192 190 213 169 3 -3 11 -109 17 -235 11 -251
13 -260 82 -305 29 -19 33 -30 67 -180 55 -244 59 -278 59 -440 l0 -150 -51
-95 c-61 -115 -82 -183 -82 -267 0 -140 65 -208 250 -263 100 -29 169 -70 253
-149 144 -135 251 -314 302 -504 33 -125 69 -225 165 -467 109 -273 161 -438
193 -613 l15 -78 -39 -45 c-45 -53 -69 -95 -69 -123 0 -23 -38 -91 -165 -291
-277 -436 -438 -792 -640 -1410 -120 -368 -316 -1082 -301 -1097 13 -14 24 16
70 197 125 485 308 1071 441 1406 137 344 246 560 444 874 65 102 130 207 145
233 21 37 32 47 46 42 45 -14 136 37 1009 568 832 506 1140 682 1159 662 29
-29 1023 -1408 1019 -1412 -3 -2 -45 -13 -94 -24 -198 -43 -458 -148 -633
-256 -197 -122 -417 -316 -575 -508 -324 -394 -571 -913 -745 -1562 -52 -195
-58 -227 -38 -221 6 2 28 69 49 149 147 574 339 1026 597 1404 360 527 821
852 1383 974 l85 18 175 -53 c593 -182 869 -318 1105 -546 262 -253 391 -563
429 -1030 5 -59 10 -78 21 -78 12 0 14 9 10 43 -3 23 -8 78 -11 122 -4 44 -17
134 -30 200 -99 497 -369 837 -850 1070 -161 78 -336 143 -615 230 -118 36
-220 71 -226 78 -11 11 -1015 1394 -1028 1416 -8 12 81 58 181 94 l72 26 153
-111 c757 -549 1361 -1138 1813 -1768 37 -52 85 -110 106 -128 90 -77 234
-284 296 -422 103 -231 160 -483 184 -816 16 -222 3 -612 -26 -831 -5 -33 -3
-43 8 -43 10 0 16 16 20 47 35 276 42 748 13 983 -57 476 -199 818 -445 1069
-40 42 -103 117 -139 166 -205 284 -398 511 -651 769 -371 377 -698 658 -1150
987 l-174 127 -46 -14 -45 -13 -53 40 c-104 78 -178 198 -209 338 -19 86 -15
306 8 401 l13 55 39 -80 c43 -90 40 -92 69 37 22 94 69 206 132 318 69 122
321 501 328 494 3 -3 26 29 50 71 25 42 48 72 51 66 4 -6 4 -41 1 -78 l-6 -68
40 74 c76 140 85 121 11 -22 -27 -54 -46 -97 -41 -97 5 0 53 46 107 103 165
171 228 327 223 552 -2 55 4 136 11 180 19 104 19 466 1 595 -64 462 -241 887
-489 1176 -83 96 -220 209 -318 261 -55 29 -78 48 -100 83 -45 71 -151 172
-244 232 -213 139 -416 209 -975 339 -416 97 -613 152 -799 225 -15 6 -17 4
-11 -7z m210 -92 c124 -40 323 -91 655 -167 513 -118 767 -214 968 -365 68
-51 137 -124 177 -188 20 -32 46 -52 99 -80 377 -200 681 -716 787 -1338 30
-177 37 -473 15 -639 -9 -69 -18 -186 -20 -260 -2 -106 -7 -149 -24 -200 -26
-80 -83 -178 -139 -239 l-42 -46 23 65 c26 71 52 198 43 206 -13 13 -26 -9
-32 -57 -5 -38 -16 -61 -46 -95 -22 -26 -39 -39 -39 -30 0 32 62 212 86 248
33 52 12 57 -32 8 -20 -22 -38 -39 -39 -38 -1 2 3 37 11 78 14 79 19 314 8
394 -7 48 -33 66 -35 24 0 -22 -1 -22 -12 -4 -337 525 -597 857 -804 1028 -30
25 -33 31 -33 85 0 119 -85 192 -281 242 l-74 19 3 33 c9 95 53 221 116 332
l45 79 -42 -8 c-68 -11 -254 -6 -366 11 -58 9 -106 17 -108 19 -2 1 42 10 96
19 135 22 249 63 229 82 -3 3 -31 -1 -64 -10 -58 -15 -208 -21 -238 -9 -14 5
-12 11 10 37 l27 32 -52 22 c-111 49 -268 77 -486 89 -105 5 -146 12 -211 34
-151 53 -299 72 -599 77 l-270 5 -120 50 c-66 28 -124 53 -129 56 -5 3 40 20
100 37 60 18 183 55 274 83 223 68 325 85 483 80 70 -1 127 -2 127 -2 0 1 -38
51 -84 112 -101 133 -104 137 -85 130 8 -3 64 -21 124 -41z m-185 -546 l55 -7
-85 -13 c-47 -7 -127 -21 -179 -32 -261 -53 -1022 -129 -1546 -153 -102 -5
-108 -4 -77 10 188 83 761 178 1233 204 169 9 502 4 599 -9z m229 -41 c178
-29 215 -104 172 -345 -127 -712 -385 -1035 -876 -1094 -53 -6 -281 -11 -555
-10 -658 0 -953 -21 -1340 -97 -69 -13 -140 -24 -158 -24 -37 0 -72 29 -72 60
0 43 33 180 73 300 22 69 40 128 39 131 -1 4 33 10 76 13 42 4 93 9 113 12
l36 5 62 203 c33 111 61 205 61 209 0 4 -33 7 -73 7 -41 0 -76 3 -79 6 -4 3 1
27 9 52 56 174 108 269 173 317 58 43 119 53 385 65 520 23 1181 89 1515 152
250 46 338 54 439 38z m251 -87 c102 -73 147 -202 136 -398 -22 -409 -281
-838 -597 -984 -137 -64 -210 -71 -544 -52 -231 14 -764 14 -970 1 -320 -21
-606 -59 -849 -116 -61 -14 -120 -27 -132 -29 -14 -3 -31 6 -52 28 l-32 33 82
12 c46 6 142 23 213 36 315 59 610 78 1255 81 450 2 548 5 617 19 457 92 694
409 819 1096 28 155 28 232 0 275 -31 48 -16 47 54 -2z m339 1 c89 -15 205
-47 230 -63 25 -16 -6 -40 -71 -53 -70 -14 -56 -24 50 -34 37 -4 73 -10 80
-14 19 -9 -176 -20 -258 -14 -96 8 -57 -10 92 -40 192 -40 321 -56 451 -56
l117 0 -38 -77 c-46 -92 -68 -157 -85 -247 -7 -37 -15 -67 -17 -68 -3 0 -30 3
-60 7 -54 7 -57 10 -205 152 -171 166 -298 277 -437 385 -53 42 -113 93 -134
114 l-38 37 119 -7 c65 -4 157 -14 204 -22z m-79 -216 c154 -125 375 -334 538
-507 l143 -153 -20 -22 c-57 -60 -162 -520 -147 -644 6 -50 3 -62 -35 -139
-76 -158 -218 -276 -383 -318 -181 -46 -354 -30 -947 84 -140 27 -320 59 -400
71 -134 21 -151 26 -251 76 -424 213 -748 252 -748 90 0 -45 35 -111 84 -155
14 -14 26 -29 26 -35 0 -6 -30 -24 -65 -40 -67 -30 -170 -114 -194 -160 -8
-14 -21 -26 -29 -26 -60 0 -692 379 -787 471 -19 19 -19 19 2 19 12 0 70 12
130 26 226 53 513 93 818 114 219 15 733 14 1056 -1 244 -12 275 -11 346 4
253 55 480 256 628 556 96 192 139 362 139 551 0 111 -7 163 -31 228 -8 21
-12 23 127 -90z m-2923 -362 c3 -3 -18 -86 -48 -183 l-54 -178 -102 -9 c-56
-5 -109 -6 -117 -3 -11 5 -16 20 -16 49 0 98 64 253 127 308 36 32 37 33 120
27 46 -3 87 -8 90 -11z m3593 -130 c174 -40 267 -84 302 -143 18 -31 36 -128
22 -121 -5 2 -44 21 -87 42 -46 23 -100 41 -132 45 -51 6 -55 9 -139 98 -47
50 -86 94 -86 97 0 9 5 8 120 -18z m122 -207 c204 -43 463 -299 804 -794 150
-218 284 -430 284 -451 0 -10 -86 109 -190 266 -104 157 -190 283 -191 280 0
-3 -24 -113 -54 -245 l-53 -240 191 -257 c105 -142 193 -258 196 -258 4 0 26
80 50 178 61 249 69 260 50 67 -9 -92 -30 -184 -64 -290 -4 -13 7 -5 30 20 33
35 36 37 31 15 -4 -14 -12 -46 -18 -72 -6 -27 -14 -48 -18 -48 -4 0 -38 46
-75 103 -263 394 -579 763 -793 925 -46 34 -122 81 -170 104 -80 39 -94 43
-167 43 -44 0 -83 5 -87 10 -22 29 3 210 56 417 47 180 59 211 87 225 30 16
35 16 101 2z m-11 -716 c37 -17 69 -35 73 -41 8 -13 -45 -174 -80 -244 -78
-155 -206 -295 -331 -361 -38 -20 -109 -48 -158 -63 -85 -26 -101 -28 -280
-28 -181 0 -198 2 -369 38 -526 110 -738 184 -867 304 -65 60 -121 155 -94
160 23 5 197 -23 480 -78 349 -68 471 -88 613 -100 141 -12 271 -2 373 30 154
48 288 167 362 322 23 48 49 89 57 92 8 3 47 4 85 2 52 -2 87 -11 136 -33z
m-2784 16 c35 -6 63 -14 63 -18 0 -4 -14 -20 -30 -36 -17 -16 -36 -46 -42 -67
-15 -49 7 -107 72 -193 l48 -63 -14 -73 c-21 -112 -31 -132 -80 -173 -53 -44
-83 -103 -84 -160 0 -34 -2 -37 -16 -26 -29 25 -36 52 -40 168 -2 65 -6 169
-9 234 l-6 116 30 7 c17 4 31 9 31 12 0 3 -23 28 -51 56 -28 29 -63 76 -76
106 l-25 53 19 26 c31 42 94 51 210 31z m240 -69 c58 -22 170 -70 248 -107
l143 -68 23 -55 c15 -37 44 -77 88 -121 136 -136 400 -227 1006 -345 137 -27
413 -25 520 4 288 78 484 274 590 591 l32 94 17 -67 c34 -138 93 -225 301
-451 169 -183 275 -308 275 -324 0 -24 -54 -83 -114 -126 -73 -51 -120 -75
-246 -127 -174 -72 -250 -98 -320 -109 -61 -10 -76 -10 -116 6 -38 15 -50 25
-66 61 -10 24 -23 44 -28 44 -17 0 -11 -41 10 -75 48 -78 165 -89 328 -32 118
42 269 105 339 140 29 15 54 27 57 27 2 0 -16 -30 -41 -67 -77 -116 -129 -237
-160 -378 -20 -93 -20 -297 0 -393 15 -68 15 -77 -4 -160 -28 -128 -35 -307
-15 -412 21 -115 80 -232 154 -308 31 -33 68 -66 81 -75 14 -9 23 -18 20 -19
-2 -2 -71 -36 -154 -77 -192 -94 -426 -227 -845 -481 -1196 -725 -1220 -739
-1220 -718 0 42 -24 198 -46 298 -36 160 -71 266 -184 555 -100 257 -133 353
-169 488 -43 160 -161 349 -299 479 -89 83 -152 121 -262 154 -150 46 -201 85
-226 171 -25 87 -1 188 82 340 l46 84 0 142 c0 82 -7 182 -16 237 -21 133 -73
358 -91 398 -34 75 -12 153 60 207 46 36 59 61 80 160 10 44 19 82 21 84 1 1
19 -9 39 -25 24 -18 39 -24 46 -17 7 7 -9 24 -45 52 -89 67 -166 181 -166 247
0 31 76 114 104 114 10 0 65 -18 123 -40z m3452 -258 l172 -259 -45 -173 c-25
-95 -47 -174 -49 -176 -2 -3 -297 390 -337 451 -6 9 5 66 66 343 9 39 17 72
18 72 2 0 80 -116 175 -258z m-687 166 c195 -159 460 -472 712 -841 l87 -127
-32 -56 -32 -56 -36 68 c-65 124 -236 338 -478 600 -159 174 -216 246 -253
329 -33 72 -52 135 -40 135 5 0 37 -23 72 -52z m585 -886 c40 -54 83 -122 97
-152 l25 -54 -22 -36 c-12 -19 -84 -129 -160 -245 -152 -231 -244 -406 -280
-534 -13 -46 -27 -79 -30 -74 -14 22 -47 123 -61 184 -62 266 2 561 172 797
51 72 172 212 182 212 3 -1 37 -45 77 -98z m-2479 -3139 c-3 -44 -5 -48 -36
-57 -63 -18 -68 28 -11 97 27 33 34 36 41 23 5 -9 8 -37 6 -63z"/>
<path d="M4351 8898 c-29 -133 -82 -331 -91 -341 -4 -5 -96 -3 -204 4 -108 7
-198 10 -200 8 -9 -9 -128 -390 -123 -395 2 -3 87 -11 187 -19 101 -8 185 -16
187 -19 7 -7 -45 -124 -129 -289 -74 -144 -91 -194 -53 -156 16 16 171 327
201 402 l19 47 55 -5 c30 -3 88 -6 129 -8 l74 -2 66 197 c36 108 63 199 60
202 -2 3 -52 8 -109 11 -58 4 -110 8 -116 10 -7 2 7 72 37 192 52 207 60 254
43 260 -6 2 -20 -38 -33 -99z m-156 -373 c132 -9 254 -18 272 -21 l31 -5 -55
-167 c-31 -92 -59 -171 -63 -175 -4 -4 -129 1 -278 13 -149 11 -285 20 -303
20 -30 0 -31 1 -25 32 3 17 27 96 53 175 l46 143 41 0 c23 0 149 -7 281 -15z"/>
<path d="M3510 7241 c-15 -29 -12 -46 10 -66 15 -14 29 -16 72 -11 73 9 234
-9 350 -40 107 -28 133 -24 144 22 8 32 3 37 -76 63 -103 33 -233 51 -366 51
-112 0 -124 -2 -134 -19z m351 -26 c97 -17 191 -47 196 -62 7 -20 -37 -25 -85
-9 -93 30 -149 39 -292 45 -127 5 -145 8 -148 24 -3 15 8 17 121 17 68 0 162
-7 208 -15z"/>
<path d="M2568 7176 c-31 -13 -77 -35 -102 -50 -48 -28 -146 -120 -146 -136 0
-14 38 -50 53 -50 7 0 37 23 66 50 46 43 151 104 214 124 19 6 22 37 7 67 -13
24 -22 24 -92 -5z m70 -22 c-2 -9 -25 -25 -53 -36 -56 -22 -167 -98 -189 -130
-9 -13 -21 -18 -31 -14 -14 5 -14 8 0 29 29 46 130 115 213 148 59 23 64 23
60 3z"/>
<path d="M5475 5923 c-190 -487 -437 -688 -946 -768 -256 -41 -943 -25 -1336
31 -35 5 -43 3 -43 -10 0 -9 3 -16 8 -16 4 0 95 -9 202 -19 593 -59 1059 -52
1345 20 276 70 451 179 595 371 98 129 248 454 223 479 -6 6 -24 -28 -48 -88z"/>
<path d="M5883 3144 c-477 -367 -846 -721 -1166 -1118 l-96 -119 -50 -152
c-92 -281 -153 -563 -182 -840 -16 -157 -18 -487 -3 -492 8 -3 13 62 17 214
11 399 65 711 194 1108 34 107 55 153 86 193 177 232 494 569 752 800 142 127
441 370 547 445 32 22 58 44 58 48 0 26 -34 7 -157 -87z"/>
<path d="M8250 1857 c0 -23 54 -146 183 -412 63 -132 131 -284 151 -338 69
-185 126 -478 126 -646 0 -83 10 -161 21 -161 4 0 9 53 12 118 2 64 12 160 22
212 28 145 25 411 -8 740 -15 146 -29 300 -33 343 -3 42 -10 77 -15 77 -16 0
-10 -155 17 -408 18 -163 27 -310 28 -432 1 -167 -10 -348 -20 -338 -2 3 -13
58 -24 124 -42 248 -97 404 -253 724 -55 113 -119 250 -143 305 -40 93 -64
127 -64 92z"/>
</g>
</svg>
